<svg xmlns="http://www.w3.org/2000/svg" width="288" height="70" viewBox="0 0 288 70" fill="none">
<path d="M75 51.5128V22.4872H87.3945C90.2878 22.4872 92.6319 23.4208 94.4263 25.2882C96.2207 27.1557 97.118 29.5506 97.118 32.4736C97.118 35.4234 96.2207 37.839 94.4263 39.7199C92.6319 41.6008 90.2878 42.5414 87.3945 42.5414H82.3032V51.5128H75V51.5128ZM82.3032 36.4518H85.892C87.1162 36.4518 88.0552 36.0866 88.709 35.3558C89.3628 34.6252 89.6897 33.6645 89.6897 32.4736C89.6897 31.2827 89.3697 30.3357 88.7297 29.632C88.09 28.9283 87.1858 28.5765 86.0173 28.5765H82.3032V36.4518V36.4518ZM101.249 51.5128V22.4872H111.641C114.284 22.4872 116.217 22.7171 117.441 23.1772C119.166 23.8269 120.516 24.8754 121.489 26.3234C122.463 27.7713 122.95 29.5372 122.95 31.6211C122.95 33.245 122.561 34.7944 121.781 36.2692C121.002 37.7442 119.904 38.8336 118.485 39.5373V39.6184C118.763 39.9702 119.138 40.552 119.611 41.3639L125.412 51.5128H117.274L111.974 41.7294H108.552V51.5128H101.249ZM108.552 35.6402H111.724C112.92 35.6402 113.852 35.3289 114.52 34.7063C115.188 34.084 115.522 33.2044 115.522 32.0678C115.522 30.4708 114.937 29.4424 113.769 28.9823C113.129 28.7118 112.211 28.5765 111.014 28.5765H108.552V35.6402ZM126.748 36.8174C126.748 32.5955 128.208 29.0704 131.13 26.2422C134.051 23.4141 137.793 22 142.355 22C146.918 22 150.66 23.4141 153.581 26.2422C156.503 29.0704 157.963 32.5955 157.963 36.8174C157.963 41.1474 156.503 44.7604 153.581 47.6562C150.66 50.5521 146.918 52 142.355 52C137.793 52 134.051 50.5521 131.13 47.6562C128.208 44.7604 126.748 41.1474 126.748 36.8174V36.8174ZM134.301 36.8174C134.301 39.3071 135.059 41.3776 136.575 43.0283C138.092 44.6793 140.018 45.5046 142.355 45.5046C144.692 45.5046 146.619 44.6793 148.135 43.0283C149.652 41.3776 150.41 39.3071 150.41 36.8174C150.41 34.4356 149.652 32.4532 148.135 30.8702C146.619 29.2869 144.692 28.4954 142.355 28.4954C140.018 28.4954 138.092 29.2869 136.575 30.8702C135.059 32.4532 134.301 34.4356 134.301 36.8174ZM169.106 51.5128L158.547 22.4872H166.476L171.735 39.0095C171.902 39.5507 172.082 40.2138 172.277 40.9986C172.472 41.7834 172.625 42.4194 172.736 42.9066L172.862 43.678H172.945C173.307 41.7834 173.682 40.2273 174.072 39.0095L179.413 22.4872H187.217L176.701 51.5128H169.106V51.5128ZM190.097 51.5128V22.4872H197.4V51.5128H190.097V51.5128ZM202.074 51.5128V47.0474L213.592 31.1745C213.981 30.6333 214.364 30.1461 214.74 29.7131C215.115 29.2802 215.4 28.9689 215.595 28.7795L215.887 28.5359V28.4548C215.247 28.5359 214.482 28.5765 213.592 28.5765H202.616V22.4872H225.152V26.8715L213.592 42.8255C213.202 43.3667 212.82 43.8539 212.444 44.2869C212.069 44.7198 211.783 45.0174 211.589 45.1799L211.297 45.4641V45.5452C211.937 45.4641 212.702 45.4235 213.592 45.4235H225.36V51.5128H202.074V51.5128ZM227.989 36.8174C227.989 32.5955 229.45 29.0704 232.371 26.2422C235.292 23.4141 239.034 22 243.597 22C248.16 22 251.902 23.4141 254.823 26.2422C257.744 29.0704 259.205 32.5955 259.205 36.8174C259.205 41.1474 257.744 44.7604 254.823 47.6562C251.902 50.5521 248.16 52 243.597 52C239.034 52 235.292 50.5521 232.371 47.6562C229.45 44.7604 227.989 41.1474 227.989 36.8174ZM235.543 36.8174C235.543 39.3071 236.301 41.3776 237.817 43.0283C239.333 44.6793 241.26 45.5046 243.597 45.5046C245.934 45.5046 247.861 44.6793 249.377 43.0283C250.893 41.3776 251.651 39.3071 251.651 36.8174C251.651 34.4356 250.893 32.4532 249.377 30.8702C247.861 29.2869 245.934 28.4954 243.597 28.4954C241.26 28.4954 239.333 29.2869 237.817 30.8702C236.301 32.4532 235.543 34.4356 235.543 36.8174ZM263.837 51.5128V22.4872H274.229C276.871 22.4872 278.805 22.7171 280.029 23.1772C281.754 23.8269 283.104 24.8754 284.077 26.3234C285.051 27.7713 285.538 29.5372 285.538 31.6211C285.538 33.245 285.148 34.7944 284.369 36.2692C283.59 37.7442 282.491 38.8336 281.073 39.5373V39.6184C281.351 39.9702 281.726 40.552 282.199 41.3639L288 51.5128H279.862L274.562 41.7294H271.14V51.5128H263.837V51.5128ZM271.14 35.6402H274.312C275.508 35.6402 276.44 35.3289 277.108 34.7063C277.776 34.084 278.109 33.2044 278.109 32.0678C278.109 30.4708 277.525 29.4424 276.357 28.9823C275.717 28.7118 274.799 28.5765 273.602 28.5765H271.14V35.6402Z" fill="white"/>
<path fill-rule="evenodd" clip-rule="evenodd" d="M4.66269 14.32C4.67016 12.7709 5.79348 11.3932 7.32808 10.9849C11.1935 9.95642 17.8614 8.08866 19.1979 7.73436L30.0723 4.80238C31.8371 4.33789 31.2923 4.38813 33.6732 5.00933L59.3814 11.5697C59.9752 11.7214 60.6248 11.9074 61.272 12.0803C62.1622 12.3181 62.9992 11.6543 62.9995 10.7553L63 9.32646C63.0002 8.63354 62.4956 8.02397 61.8076 7.84708C59.8155 7.33487 56.1974 6.31687 55.095 6.01738C52.4968 5.31127 49.8472 4.64584 47.2636 3.92098C46.0908 3.59198 37.5944 1.2814 33.5942 0.246224C32.2227 -0.108704 30.8386 -0.0692324 29.4699 0.295834L15.7802 3.94716C14.876 4.19983 7.03385 6.34098 2.77109 7.46155C1.23081 7.86645 0.104666 9.25246 0.0935343 10.8061C0.044807 17.6067 -0.0864466 33.9966 0.0870162 35.6633C0.897305 43.451 3.83313 51.7025 9.54875 54.0775C11.638 54.9456 13.4049 54.8478 15.808 54.8991C18.1579 54.9492 20.4977 54.992 22.8489 55.0166C28.3678 55.0744 30.4809 55.1849 35.2489 53.2958C40.1296 51.362 43.9997 47.3359 45.9124 42.9269C46.3709 41.8702 47.4926 38.8392 47.4618 37.6686C46.615 39.427 46.7797 40.6752 44.7381 43.8211C44.0848 44.8275 42.9096 46.1842 41.946 46.9393C41.3876 47.3769 40.9406 47.7434 40.2433 48.1527C39.0243 48.8685 37.6221 49.4973 36.0351 49.8953C32.5482 50.7695 28.4035 50.5137 24.6567 50.5404C22.6594 50.5547 20.6599 50.5639 18.6625 50.5666C16.8646 50.5689 14.5981 50.7484 12.975 50.2802C10.0461 49.4354 7.95015 47.0847 6.7695 44.5551C4.327 39.3223 4.5753 34.6172 4.59147 29.0828L4.66269 14.32Z" fill="white"/>
<path fill-rule="evenodd" clip-rule="evenodd" d="M15.4778 32.3678C15.4851 31.8214 16.4925 29.4901 16.7753 28.916C18.3292 25.7615 20.3835 23.0844 23.5248 21.2176C25.5735 20.0001 28.2292 19.1948 31.1234 19.0887C34.3263 18.9714 37.7073 19.0448 40.9268 19.0448C44.1936 19.0448 47.4604 19.0563 50.727 19.057C52.2466 19.0575 54.0014 18.8939 55.3035 19.4389C59.1279 21.0395 58.4095 26.6397 58.3574 30.7504C58.2504 39.1722 56.9121 46.0152 51.0579 52.2896C50.2434 53.1623 49.6035 53.9414 48.6886 54.8011C43.897 59.3034 40.0435 61.4136 33.9692 64.2762C32.6721 64.8875 31.9477 65.5696 30.3242 64.8861C26.4023 63.2346 24.348 62.1305 20.7219 59.9704C18.9054 58.8883 19.6008 58.9019 16.9498 58.886C15.7269 58.8786 14.5028 58.8866 13.2805 58.9012C12.7242 58.9079 12.5037 59.4013 12.927 59.7528C13.201 59.9802 13.468 60.1927 13.6133 60.3148C16.8933 63.0692 22.197 66.2554 26.0581 67.9315C27.4207 68.5231 28.6871 69.0973 30.1154 69.6304C31.3149 70.0783 31.0773 70.1358 32.3157 69.7111C39.8163 67.1392 46.3978 63.2843 52.016 57.9494C52.2845 57.6945 52.4602 57.5028 52.7135 57.2371C52.9548 56.9847 53.1971 56.8156 53.4287 56.5464C55.8938 53.6793 57.5159 51.8015 59.3644 48.2448C60.6679 45.7375 61.6598 42.9313 62.2877 39.8854C63.0633 36.1235 62.9184 28.1239 62.9885 23.6161C63.0154 21.8827 62.5598 20.431 61.8788 19.146C60.6501 16.8276 58.4537 14.8853 54.9021 14.6536C52.5964 14.5032 46.1513 14.6168 43.4006 14.6166C35.9872 14.6159 30.0819 13.882 23.9086 18.1627C20.3319 20.6426 18.0413 23.7873 16.5502 27.9522C16.2367 28.8286 15.4273 31.4735 15.4778 32.3678Z" fill="white"/>
<path fill-rule="evenodd" clip-rule="evenodd" d="M31.1532 33.6035C33.2077 33.0403 33.7849 36.0437 32.0141 36.5227C29.9876 37.0707 29.1172 34.1615 31.1532 33.6035ZM35.5377 28.0448C37.027 27.693 38.291 28.7315 38.5693 29.8907C39.3502 33.1445 34.3429 34.2171 33.5788 31.0548C33.1953 29.4675 34.2803 28.3422 35.5377 28.0448ZM19.4462 35.5688C19.834 41.8001 25.2634 46.9497 32.148 46.5743C38.5744 46.2241 43.8526 40.8938 43.4733 34.195C43.1197 27.9507 37.6355 22.7773 30.7498 23.1755C24.3573 23.5453 19.0292 28.8659 19.4462 35.5688Z" fill="white"/>
<path d="M257.748 15V8.22H255.144V6.42H262.452V8.22H259.848V15H257.748Z" fill="white"/>
<path d="M263.494 15V6.42H268.87V8.22H265.594V9.78H268.21V11.58H265.594V13.2H269.038V15H263.494Z" fill="white"/>
<path d="M269.776 10.692C269.776 9.428 270.196 8.376 271.036 7.536C271.884 6.696 272.964 6.276 274.276 6.276C274.876 6.276 275.46 6.38 276.028 6.588C276.596 6.788 277.084 7.088 277.492 7.488L276.52 9.072C276.232 8.816 275.892 8.608 275.5 8.448C275.116 8.28 274.74 8.196 274.372 8.196C273.572 8.196 272.968 8.436 272.56 8.916C272.152 9.388 271.948 9.964 271.948 10.644C271.948 11.34 272.156 11.944 272.572 12.456C272.996 12.968 273.596 13.224 274.372 13.224C275.188 13.224 275.948 12.872 276.652 12.168L277.732 13.704C276.804 14.664 275.652 15.144 274.276 15.144C272.916 15.144 271.824 14.728 271 13.896C270.184 13.056 269.776 11.988 269.776 10.692Z" fill="white"/>
<path d="M278.798 15V6.42H280.898V9.852H284.018V6.42H286.118V15H284.018V11.64H280.898V15H278.798Z" fill="white"/>
</svg>
