<?xml version="1.0" standalone="no"?>
<!DOCTYPE svg PUBLIC "-//W3C//DTD SVG 20010904//EN"
    "http://www.w3.org/TR/2001/REC-SVG-20010904/DTD/svg10.dtd">
<svg version="1.0" xmlns="http://www.w3.org/2000/svg"
     width="512.000000pt" height="512.000000pt" viewBox="0 0 512.000000 512.000000"
     preserveAspectRatio="xMidYMid meet">

    <g transform="translate(0.000000,512.000000) scale(0.100000,-0.100000)"
       fill="white" stroke="none">
        <path d="M2384 5110 c-719 -48 -1378 -398 -1836 -975 -217 -274 -405 -669
-482 -1015 -80 -360 -80 -760 0 -1120 126 -564 442 -1068 899 -1435 289 -232
677 -419 1035 -499 360 -80 760 -80 1120 0 564 126 1068 442 1435 899 232 289
419 677 499 1035 80 360 80 760 0 1120 -126 564 -442 1068 -899 1435 -289 232
-677 419 -1035 499 -227 50 -505 71 -736 56z m371 -723 c93 -26 467 -128 565
-153 30 -8 109 -30 175 -48 66 -18 167 -46 225 -61 58 -15 116 -30 130 -35 14
-4 70 -20 125 -35 172 -47 225 -66 235 -85 6 -10 10 -50 10 -89 0 -60 -3 -73
-22 -91 -29 -27 -53 -25 -258 30 -85 22 -285 74 -445 115 -324 82 -496 127
-725 187 -196 52 -221 55 -306 29 -38 -11 -105 -29 -149 -41 -44 -12 -105 -28
-135 -37 -30 -8 -86 -23 -125 -33 -38 -11 -110 -30 -160 -44 -95 -26 -128 -35
-405 -110 -96 -27 -194 -55 -218 -64 -56 -20 -109 -81 -117 -136 -4 -22 -5
-322 -2 -666 3 -548 6 -634 21 -700 66 -287 172 -451 346 -538 l74 -37 536 0
c480 0 543 2 615 18 103 23 124 31 220 78 186 92 323 257 394 479 35 108 60
128 36 30 -94 -391 -365 -685 -740 -803 -164 -51 -172 -52 -625 -51 -259 1
-454 6 -499 13 -225 35 -395 200 -511 496 -49 125 -66 190 -100 380 -19 103
-20 155 -20 803 0 670 1 694 20 731 31 61 82 96 174 120 101 26 218 57 271 72
22 6 60 17 85 24 25 7 63 18 85 24 22 6 123 34 225 61 102 28 226 61 275 75
50 13 133 36 185 49 52 14 127 34 165 45 39 10 81 22 95 24 55 11 188 -1 275
-26z m1084 -748 c149 -25 262 -113 334 -258 l42 -84 3 -331 c5 -471 -14 -656
-88 -879 -110 -330 -342 -644 -671 -911 -61 -48 -288 -204 -336 -228 -177 -93
-230 -119 -303 -150 -110 -47 -217 -86 -256 -94 -31 -6 -134 32 -329 121 -255
117 -665 391 -665 446 0 27 28 31 192 27 l145 -3 54 -34 c151 -95 346 -199
482 -257 121 -52 133 -50 353 60 331 165 512 294 720 509 143 148 215 244 281
373 120 235 157 413 172 822 15 406 -10 520 -132 600 l-41 27 -680 0 c-740 0
-726 1 -868 -57 -141 -58 -284 -177 -372 -308 -49 -72 -129 -234 -141 -282 -4
-16 -11 -28 -16 -28 -13 0 -12 7 22 126 74 259 195 444 381 585 158 118 311
179 513 204 133 17 1110 20 1204 4z m-1153 -458 c334 -64 565 -398 499 -722
-21 -105 -47 -167 -101 -245 -79 -113 -192 -196 -334 -245 -55 -19 -85 -23
-195 -22 -113 0 -139 3 -203 26 -99 35 -170 79 -244 154 -120 119 -177 248
-185 413 -8 150 25 260 114 388 88 125 254 230 403 255 49 8 198 7 246 -2z"/>
        <path d="M2743 2909 c-84 -41 -97 -140 -27 -204 22 -21 37 -25 85 -25 52 0 61
3 93 34 31 28 36 40 36 77 0 56 -30 106 -75 125 -46 19 -62 18 -112 -7z"/>
        <path d="M2513 2613 c-17 -11 -23 -25 -23 -52 1 -47 20 -71 62 -77 47 -8 82
21 82 69 0 67 -65 100 -121 60z"/>
    </g>
</svg>
